<svg width="13" height="12" viewBox="0 0 13 12" fill="none" xmlns="http://www.w3.org/2000/svg">
<path fill-rule="evenodd" clip-rule="evenodd" d="M4.28724 0.837148C3.29427 0.837148 2.4894 1.64936 2.4894 2.65122C2.4894 3.65295 3.29427 4.46517 4.28724 4.46517C5.28021 4.46517 6.08508 3.65295 6.08508 2.65122C6.08508 1.64936 5.28021 0.837148 4.28724 0.837148ZM1.65955 2.65122C1.65955 1.1869 2.83605 0 4.28724 0C5.73843 0 6.91492 1.1869 6.91492 2.65122C6.91492 4.11541 5.73843 5.30231 4.28724 5.30231C2.83605 5.30231 1.65955 4.11541 1.65955 2.65122ZM7.74463 0.418569C7.74463 0.187339 7.93044 0 8.15949 0C9.61081 0 10.7872 1.1869 10.7872 2.65122C10.7872 4.11541 9.61081 5.30231 8.15949 5.30231C7.93044 5.30231 7.74463 5.11497 7.74463 4.88374C7.74463 4.65251 7.93044 4.46517 8.15949 4.46517C9.15245 4.46517 9.95746 3.65295 9.95746 2.65122C9.95746 1.64936 9.15245 0.837148 8.15949 0.837148C7.93044 0.837148 7.74463 0.649799 7.74463 0.418569ZM0 9.79607C0 8.08467 1.37453 6.69769 3.07019 6.69769H5.50428C7.19982 6.69769 8.57448 8.08467 8.57448 9.79607C8.57448 11.0125 7.59614 12 6.3893 12H2.18504C0.978332 12 0 11.0125 0 9.79607ZM3.07019 7.53496C1.83288 7.53496 0.829711 8.54699 0.829711 9.79607C0.829711 10.5506 1.43655 11.1629 2.18504 11.1629H6.3893C7.13779 11.1629 7.74463 10.5506 7.74463 9.79607C7.74463 8.54699 6.7416 7.53496 5.50428 7.53496H3.07019ZM8.85105 7.11639C8.85105 6.88516 9.03673 6.69769 9.2659 6.69769H9.9298C11.6253 6.69769 13 8.08467 13 9.79607C13 11.0125 12.0217 12 10.8148 12H9.2659C9.03673 12 8.85105 11.8131 8.85105 11.5814C8.85105 11.3498 9.03673 11.1629 9.2659 11.1629H10.8148C11.5633 11.1629 12.1702 10.5506 12.1702 9.79607C12.1702 8.54699 11.1671 7.53496 9.9298 7.53496H9.2659C9.03673 7.53496 8.85105 7.34749 8.85105 7.11639Z" fill="#222E39"/>
</svg>
