<svg width="12" height="12" viewBox="0 0 12 12" fill="none" xmlns="http://www.w3.org/2000/svg">
<path fill-rule="evenodd" clip-rule="evenodd" d="M4.86499 0H7.13501C7.90062 0 8.50084 -2.01849e-06 8.98334 0.0394164C9.47451 0.0795121 9.88034 0.162688 10.2477 0.349756C10.8516 0.657518 11.3425 1.14842 11.6502 1.75229C11.8373 2.11965 11.9205 2.52549 11.9606 3.01666C12 3.49917 12 4.09938 12 4.86499V7.13501C12 7.90062 12 8.50084 11.9606 8.98334C11.9205 9.47451 11.8373 9.88035 11.6502 10.2477C11.3425 10.8516 10.8516 11.3425 10.2477 11.6502C9.88034 11.8373 9.47451 11.9205 8.98334 11.9606C8.50084 12 7.90062 12 7.13501 12H4.86499C4.68307 12 4.51063 12 4.34673 11.9995C4.33969 11.9999 4.33264 12 4.3256 12C4.31747 12 4.30934 11.9997 4.30135 11.9993C3.79568 11.9973 3.37386 11.9897 3.01666 11.9606C2.52549 11.9205 2.11966 11.8373 1.75229 11.6502C1.14842 11.3425 0.657515 10.8516 0.349754 10.2477C0.162685 9.88035 0.0795147 9.47451 0.039419 8.98334C5.65177e-07 8.50084 0 7.90062 0 7.13501V4.86499C0 4.09938 5.65177e-07 3.49917 0.039419 3.01666C0.0795147 2.52549 0.162685 2.11965 0.349754 1.75229C0.657515 1.14842 1.14842 0.657518 1.75229 0.349756C2.11966 0.162688 2.52549 0.0795121 3.01666 0.0394164C3.37386 0.0101574 3.79568 0.0027088 4.30135 0.000676921C4.30934 0.000270545 4.31747 0 4.3256 0C4.33264 0 4.33969 0.000136194 4.34673 0.00054257C4.51063 7.35842e-07 4.68307 0 4.86499 0ZM3.90703 0.841195C3.58897 0.84553 3.31995 0.854607 3.08493 0.873843C2.64537 0.909739 2.36199 0.978687 2.13239 1.09572C1.68605 1.32316 1.32316 1.68605 1.09572 2.13239C0.978687 2.36199 0.909739 2.64537 0.873843 3.08493C0.83754 3.52924 0.837268 4.09532 0.837268 4.88369V7.11631C0.837268 7.90468 0.83754 8.47076 0.873843 8.91507C0.909739 9.35463 0.978687 9.63801 1.09572 9.86761C1.32316 10.3139 1.68605 10.6768 2.13239 10.9043C2.36199 11.0212 2.64537 11.0903 3.08493 11.1262C3.31995 11.1454 3.58897 11.1545 3.90703 11.1588V0.841195ZM4.74416 11.1627V0.837268C4.78995 0.837133 4.83641 0.837134 4.88369 0.837134H7.11631C7.90468 0.837134 8.47076 0.83754 8.91507 0.873843C9.35463 0.909739 9.63801 0.978687 9.86761 1.09572C10.3139 1.32316 10.6768 1.68605 10.9043 2.13239C11.0213 2.36199 11.0903 2.64537 11.1262 3.08493C11.1625 3.52924 11.1627 4.09532 11.1627 4.88369V7.11631C11.1627 7.90468 11.1625 8.47076 11.1262 8.91507C11.0903 9.35463 11.0213 9.63801 10.9043 9.86761C10.6768 10.3139 10.3139 10.6768 9.86761 10.9043C9.63801 11.0212 9.35463 11.0903 8.91507 11.1262C8.47076 11.1625 7.90468 11.1627 7.11631 11.1627H4.88369C4.83641 11.1627 4.78995 11.1627 4.74416 11.1627Z" fill="#222E39"/>
</svg>
