<svg width="20" height="20" viewBox="0 0 20 20" fill="none" xmlns="http://www.w3.org/2000/svg">
<path fill-rule="evenodd" clip-rule="evenodd" d="M9.34283 1.4376C4.9749 1.4376 1.43733 4.9773 1.43733 9.34384C1.43733 13.7104 4.9749 17.2501 9.34283 17.2501C11.5268 17.2501 13.5016 16.3658 14.9343 14.9342C16.3647 13.5029 17.2485 11.5271 17.2485 9.34384C17.2485 4.9773 13.7084 1.4376 9.34283 1.4376ZM0 9.34384C0 4.18326 4.18179 0 9.34283 0C14.5039 0 18.6858 4.18326 18.6858 9.34384C18.6858 11.665 17.8392 13.7895 16.439 15.4231L19.4348 18.4188C19.7139 18.6995 19.7139 19.1547 19.4348 19.4354C19.1534 19.7159 18.6975 19.7159 18.4184 19.4354L15.4226 16.4395C13.7876 17.8404 11.664 18.6874 9.34283 18.6874C4.18179 18.6874 0 14.5042 0 9.34384Z" fill="#0F1419"/>
</svg>
