<svg width="12" height="12" viewBox="0 0 12 12" fill="none" xmlns="http://www.w3.org/2000/svg">
<path fill-rule="evenodd" clip-rule="evenodd" d="M5.36804 0.144933C5.76796 -0.0483109 6.23204 -0.0483109 6.63196 0.144933C6.90876 0.278615 7.10514 0.531414 7.27914 0.817308C7.45405 1.10453 7.646 1.49498 7.88507 1.98074L8.08718 2.39105C8.25102 2.72459 8.29865 2.81195 8.35852 2.87681C8.42033 2.94166 8.49425 2.9946 8.57624 3.03034C8.65575 3.06608 8.75284 3.08064 9.1171 3.12167L9.31296 3.14417C9.88726 3.20902 10.346 3.26065 10.6933 3.33345C11.0359 3.4036 11.3551 3.50817 11.5786 3.7398C11.8982 4.07202 12.0487 4.53526 11.986 4.99587C11.9423 5.3175 11.7472 5.59545 11.5135 5.86017C11.2765 6.12753 10.9383 6.44653 10.5148 6.84625L10.3146 7.03551C9.99398 7.33861 9.91173 7.42465 9.86566 7.51598C9.81803 7.60996 9.79278 7.71451 9.79161 7.8204C9.79057 7.92232 9.8248 8.03879 9.97159 8.46499L9.97862 8.48484C10.1953 9.11354 10.367 9.61122 10.4644 9.99771C10.5592 10.3736 10.6121 10.7429 10.4888 11.0632C10.315 11.5132 9.9388 11.8507 9.47797 11.9685C9.15145 12.0532 8.80112 11.9553 8.44935 11.8137C8.08835 11.6694 7.63117 11.4364 7.05465 11.1439L6.58758 10.9057C6.28527 10.7521 6.20289 10.7151 6.12363 10.6992C6.04191 10.6833 5.95809 10.6833 5.87637 10.6992C5.79724 10.7151 5.71474 10.7521 5.41242 10.9057L4.94535 11.1439C4.36896 11.4364 3.91165 11.6694 3.55065 11.8137C3.19888 11.9553 2.84855 12.0532 2.52203 11.9685C2.0612 11.8507 1.68497 11.5132 1.51123 11.0632C1.38786 10.7429 1.44083 10.3736 1.53557 9.99771C1.63304 9.61122 1.8047 9.11354 2.02138 8.48484L2.02841 8.46499C2.1752 8.03879 2.20943 7.92232 2.20839 7.8204C2.20722 7.71451 2.18197 7.60996 2.13434 7.51598C2.08827 7.42465 2.00602 7.33861 1.68536 7.03551L1.48521 6.84625C1.06173 6.44653 0.723499 6.12753 0.486515 5.86017C0.252785 5.59545 0.0577059 5.3175 0.0139791 4.99587C-0.0487481 4.53526 0.101824 4.07202 0.421447 3.7398C0.644896 3.50817 0.964126 3.4036 1.30665 3.33345C1.65399 3.26065 2.11274 3.20902 2.68704 3.14417L2.8829 3.12167C3.24716 3.08064 3.34425 3.06608 3.42376 3.03034C3.50575 2.9946 3.57967 2.94166 3.64148 2.87681C3.70135 2.81195 3.74898 2.72459 3.91283 2.39105L4.11493 1.98074C4.354 1.49498 4.54595 1.10453 4.72086 0.817308C4.89486 0.531414 5.09124 0.278615 5.36804 0.144933ZM6.28722 0.883492C6.10541 0.796135 5.89459 0.796135 5.71278 0.883492C5.65539 0.911287 5.56117 0.990694 5.40461 1.24747C5.25131 1.49895 5.07549 1.85632 4.82497 2.3659L4.63224 2.75769C4.62456 2.77357 4.61701 2.78814 4.60946 2.80402C4.47958 3.06874 4.37742 3.27652 4.22308 3.44065C4.08721 3.58624 3.92441 3.7014 3.74403 3.78081C3.53906 3.87082 3.31171 3.89729 3.02254 3.92906C3.00575 3.9317 2.98884 3.93303 2.97179 3.93568L2.79688 3.95553C2.19681 4.02304 1.77451 4.07068 1.46699 4.13421C1.15062 4.20039 1.04 4.2679 0.99588 4.31291C0.850644 4.4638 0.782192 4.67425 0.810692 4.88337C0.819281 4.9469 0.868735 5.06866 1.08464 5.3122C1.29442 5.54912 1.60558 5.84429 2.04793 6.26254L2.23259 6.43592C2.24782 6.45048 2.26292 6.46505 2.27775 6.47961C2.53153 6.71785 2.73064 6.9058 2.84985 7.1414C2.95448 7.3492 3.01018 7.57818 3.01265 7.81113C3.01539 8.07717 2.92442 8.33924 2.8082 8.67543C2.8013 8.69529 2.79441 8.71515 2.78738 8.73632C2.56211 9.38885 2.40243 9.8521 2.31471 10.2015C2.22323 10.5642 2.23767 10.7071 2.25992 10.7641C2.33892 10.9692 2.50992 11.1214 2.71932 11.1757C2.77918 11.1916 2.91817 11.1889 3.25549 11.0526C3.57954 10.9229 4.00496 10.7071 4.60452 10.4027L5.05271 10.1737C5.0669 10.1671 5.08096 10.1605 5.09475 10.1526C5.33499 10.0308 5.52395 9.93416 5.72814 9.89577C5.90786 9.86136 6.09227 9.86136 6.27186 9.89577C6.47605 9.93416 6.66501 10.0308 6.90525 10.1526C6.91904 10.1605 6.9331 10.1671 6.94729 10.1737L7.39549 10.4027C7.99504 10.7071 8.42046 10.9229 8.74451 11.0526C9.08183 11.1889 9.22082 11.1916 9.28068 11.1757C9.49008 11.1214 9.66108 10.9692 9.74008 10.7641C9.76233 10.7071 9.77677 10.5642 9.68529 10.2015C9.59757 9.8521 9.43789 9.38885 9.21262 8.73632C9.20559 8.71515 9.1987 8.69529 9.1918 8.67543C9.07558 8.33924 8.98462 8.07717 8.98735 7.81113C8.98982 7.57818 9.04552 7.3492 9.15015 7.1414C9.26936 6.9058 9.46847 6.71785 9.72225 6.47961C9.73708 6.46505 9.75218 6.45048 9.76741 6.43592L9.95207 6.26254C10.3944 5.84429 10.7056 5.54912 10.9154 5.3122C11.1313 5.06866 11.1807 4.9469 11.1893 4.88337C11.2178 4.67425 11.1494 4.4638 11.0041 4.31291C10.96 4.2679 10.8494 4.20039 10.533 4.13421C10.2256 4.07068 9.80319 4.02304 9.20312 3.95553L9.02821 3.93568C9.01116 3.93303 8.99425 3.9317 8.97746 3.92906C8.68829 3.89729 8.46094 3.87082 8.25597 3.78081C8.07559 3.7014 7.91279 3.58624 7.77692 3.44065C7.62258 3.27652 7.52042 3.06874 7.39054 2.80402C7.38299 2.78814 7.37544 2.77357 7.36776 2.75769L7.17503 2.3659C6.92451 1.85632 6.74869 1.49895 6.59539 1.24747C6.43883 0.990694 6.34461 0.911287 6.28722 0.883492Z" fill="#222E39"/>
</svg>
