<svg width="21" height="27" viewBox="0 0 21 27" fill="none" xmlns="http://www.w3.org/2000/svg">
<path d="M13.4694 23.0833C13.4694 24.6942 12.14 26 10.5 26C8.86001 26 7.53059 24.6942 7.53059 23.0833M10.5 2.66667C6.19515 2.66667 2.70537 6.02453 2.70537 10.1667V12.3465C2.70537 13.6573 2.42864 14.9547 1.89195 16.1595L1.14192 17.8435C0.652068 18.9432 1.49048 20.1667 2.73402 20.1667H18.2661C19.5096 20.1667 20.3479 18.9432 19.8581 17.8435L19.1081 16.1595C18.5714 14.9547 18.2946 13.6573 18.2946 12.3465V10.1667C18.2946 6.02453 14.8049 2.66667 10.5 2.66667ZM10.5 2.66667V1" stroke="#088672" stroke-width="2" stroke-linecap="round" stroke-linejoin="round"/>
</svg>
