<svg width="12" height="12" viewBox="0 0 12 12" fill="none" xmlns="http://www.w3.org/2000/svg">
<path fill-rule="evenodd" clip-rule="evenodd" d="M6.49808 0.906205C6.26726 0.841186 6.00935 0.837088 5.33029 0.837088H1.53488C1.14964 0.837088 0.837268 1.14866 0.837268 1.5347C0.837268 1.9194 1.14964 2.23228 1.53488 2.23228H7.95345L7.85307 2.09818C7.44548 1.555 7.2878 1.35047 7.09654 1.20553C6.91733 1.07008 6.71441 0.968514 6.49808 0.906205ZM9 2.23228L8.52278 1.59568C8.51005 1.57942 8.49731 1.56179 8.48485 1.54553C8.12846 1.07009 7.89886 0.763941 7.60261 0.539085C7.34063 0.339965 7.04412 0.192322 6.72809 0.101567C6.37048 -2.48066e-05 5.98767 0 5.39342 0C5.37256 0 5.35156 0 5.33029 0H1.53488C0.687182 0 0 0.686753 0 1.5347V8.91972C0 9.3735 6.33301e-07 9.73923 0.0242477 10.0359C0.0491721 10.3407 0.101865 10.6088 0.228112 10.8567C0.428861 11.2509 0.748951 11.5706 1.14286 11.7711C1.39075 11.897 1.65869 11.9499 1.96388 11.9756C2.26013 12 2.62613 12 3.07978 12H8.92021C9.37387 12 9.73988 12 10.0361 11.9756C10.3413 11.9499 10.6092 11.897 10.8571 11.7711C11.2511 11.5706 11.5713 11.2509 11.7719 10.8567C11.8981 10.6088 11.9508 10.3407 11.9758 10.0359C12 9.73923 12 9.3735 12 8.91972V5.31255C12 4.85878 12 4.49304 11.9758 4.1964C11.9508 3.89162 11.8981 3.62344 11.7719 3.37555C11.5713 2.98138 11.2511 2.66171 10.8571 2.45988C10.6092 2.33391 10.3413 2.28105 10.0361 2.25667C9.75735 2.23364 9.41708 2.23228 9 2.23228ZM1.53488 3.06941C1.28361 3.06941 1.04655 3.00846 0.837268 2.90145V8.90211C0.837268 9.37756 0.83754 9.70945 0.858671 9.96817C0.879396 10.2215 0.917866 10.3664 0.974081 10.4761C1.0945 10.7132 1.28659 10.9055 1.52296 11.026C1.63309 11.0816 1.77871 11.1195 2.03201 11.1412C2.2902 11.1615 2.62194 11.1629 3.09767 11.1629H8.90234C9.37807 11.1629 9.7098 11.1615 9.96799 11.1412C10.2213 11.1195 10.3669 11.0816 10.477 11.026C10.7134 10.9055 10.9055 10.7132 11.0259 10.4761C11.0821 10.3664 11.1206 10.2215 11.1413 9.96817C11.1577 9.7677 11.1615 9.52384 11.1625 9.20417C10.0717 9.13238 9.20928 8.22484 9.20928 7.11546C9.20928 6.00743 10.0717 5.0999 11.1625 5.02811C11.1615 4.70708 11.1577 4.46323 11.1413 4.26411C11.1206 4.01081 11.0821 3.8659 11.0259 3.75483C10.9055 3.51913 10.7134 3.32679 10.477 3.20623C10.3669 3.1507 10.2213 3.11139 9.96799 3.09107C9.7098 3.06939 9.37807 3.06941 8.90234 3.06941H1.53488ZM11.1627 5.86793C10.5349 5.93701 10.0466 6.46933 10.0466 7.11546C10.0466 7.76293 10.5349 8.29391 11.1627 8.36435V5.86793Z" fill="#222E39"/>
</svg>
