<svg width="21" height="20" viewBox="0 0 21 20" fill="none" xmlns="http://www.w3.org/2000/svg">
<path fill-rule="evenodd" clip-rule="evenodd" d="M10.5012 1.39545C5.51132 1.39545 1.4649 5.24789 1.4649 10C1.4649 14.7523 5.51132 18.6048 10.5012 18.6048C15.4886 18.6048 19.5351 14.7523 19.5351 10C19.5351 5.24789 15.4886 1.39545 10.5012 1.39545ZM0 10C0 4.47713 4.70062 0 10.5012 0C16.2993 0 21 4.47713 21 10C21 15.5229 16.2993 20 10.5012 20C4.70062 20 0 15.5229 0 10ZM10.5012 6.97679C9.82557 6.97679 9.27802 7.4974 9.27802 8.13948V8.60478C9.27802 8.98993 8.95084 9.30239 8.54549 9.30239C8.14251 9.30239 7.81311 8.98993 7.81311 8.60478V8.13948C7.81311 6.72664 9.01724 5.58134 10.5012 5.58134C11.9827 5.58134 13.1869 6.72664 13.1869 8.13948V8.25236C13.1869 8.9608 12.8906 9.64013 12.3644 10.1411L11.018 11.4237C10.7311 11.6959 10.2689 11.6959 9.98204 11.4237C9.69521 11.1512 9.69521 10.7093 9.98204 10.4369L11.3284 9.15451C11.5797 8.9152 11.722 8.59078 11.722 8.25236V8.13948C11.722 7.4974 11.1744 6.97679 10.5012 6.97679ZM9.27802 13.721C9.27802 13.0787 9.82557 12.5581 10.5012 12.5581C11.1744 12.5581 11.722 13.0787 11.722 13.721C11.722 14.3631 11.1744 14.8837 10.5012 14.8837C9.82557 14.8837 9.27802 14.3631 9.27802 13.721Z" fill="#0F1419"/>
</svg>
