<svg width="20" height="20" viewBox="0 0 20 20" fill="none" xmlns="http://www.w3.org/2000/svg">
<path fill-rule="evenodd" clip-rule="evenodd" d="M2.24505 7.20933C2.24505 3.22775 5.71553 0 9.99961 0C14.2837 0 17.7542 3.22775 17.7542 7.20933V9.40579C17.7542 9.91737 17.9558 10.4111 18.3225 10.7936L19.1969 11.7084C20.6857 13.2657 20.0177 15.7283 17.9097 16.4406L17.6644 16.5239C16.6856 16.8547 15.6874 17.1199 14.6796 17.32C13.8781 18.9759 11.8672 20 9.99961 20C8.13201 20 6.1211 18.9759 5.31966 17.32C4.31178 17.1199 3.31361 16.8547 2.33488 16.5239L2.0897 16.4406C-0.015911 15.7283 -0.686281 13.2657 0.802463 11.7084L1.67673 10.7936C2.04345 10.4111 2.24505 9.91737 2.24505 9.40579V7.20933ZM7.38897 17.6374C8.07384 18.2305 9.05002 18.6048 9.99961 18.6048C10.9492 18.6048 11.9255 18.2305 12.6104 17.6374C10.8764 17.8261 9.123 17.8261 7.38897 17.6374ZM9.99961 1.39545C6.54612 1.39545 3.74604 3.99828 3.74604 7.20933V9.40579C3.74604 10.259 3.40842 11.0828 2.79884 11.7206L1.92457 12.6353C1.14013 13.456 1.49226 14.7539 2.60214 15.1291L2.84983 15.2124C7.46907 16.7741 12.5303 16.7741 17.1495 15.2124L17.3972 15.1291C18.5071 14.7539 18.8592 13.456 18.0748 12.6353L17.2005 11.7206C16.591 11.0828 16.2533 10.259 16.2533 9.40579V7.20933C16.2533 3.99828 13.4531 1.39545 9.99961 1.39545Z" fill="#0F1419"/>
</svg>
