<svg width="13" height="13" viewBox="0 0 13 13" fill="none" xmlns="http://www.w3.org/2000/svg">
<path fill-rule="evenodd" clip-rule="evenodd" d="M4.76722 0.0833264C5.10708 -0.0277755 5.47424 -0.0277755 5.81411 0.0833264C5.99108 0.141042 6.14252 0.231967 6.29235 0.341626C6.43543 0.446956 6.59847 0.583994 6.79261 0.74704L6.80421 0.757168C7.13453 1.03564 7.22698 1.10632 7.31973 1.14528C7.43859 1.19433 7.56832 1.21313 7.69643 1.20014C7.79665 1.1886 7.90583 1.14673 8.30352 0.972138L9.94371 0.256465C10.084 0.194421 10.2463 0.207422 10.375 0.289666C10.5037 0.371911 10.5815 0.511874 10.5815 0.663377V6.16221H10.63C10.953 6.16221 11.2226 6.16221 11.4429 6.18097C11.6725 6.19828 11.8882 6.23867 12.0921 6.34111C12.4049 6.49839 12.6594 6.748 12.8188 7.05533C12.9227 7.25589 12.9633 7.46799 12.982 7.69452C13 7.91095 13 8.17501 13 8.49245V11.3652C13 12.267 12.2556 13 11.3372 13H4.30335C3.64299 13 3.11954 13 2.69779 12.9654C2.2665 12.9308 1.9014 12.8586 1.56814 12.6912C1.02781 12.4214 0.588453 11.9885 0.313009 11.4576C0.143223 11.13 0.0697054 10.7708 0.0344861 10.3466C6.50542e-07 9.93245 0 9.41735 0 8.76805V0.663377C0 0.511874 0.0776293 0.371911 0.206326 0.289666C0.335023 0.207422 0.497324 0.194421 0.637614 0.256465L2.2778 0.972138C2.67549 1.14673 2.78481 1.1886 2.8849 1.20014C3.01315 1.21313 3.14287 1.19433 3.26159 1.14528C3.35448 1.10632 3.44679 1.03564 3.77726 0.757168L3.78885 0.74704C3.98285 0.583994 4.14603 0.446956 4.28897 0.341626C4.43879 0.231967 4.59039 0.141042 4.76722 0.0833264ZM11.3372 12.1083C11.7546 12.1083 12.093 11.775 12.093 11.3652V8.51121C12.093 8.17069 12.0927 7.94272 12.078 7.76669C12.0639 7.59643 12.0385 7.51418 12.0106 7.46079C11.9381 7.32083 11.8225 7.20684 11.6803 7.13614C11.6256 7.10872 11.5425 7.08276 11.3689 7.06978C11.19 7.05535 10.9577 7.05388 10.6117 7.05388H10.5815V11.3652C10.5815 11.775 10.9197 12.1083 11.3372 12.1083ZM9.85566 12.1083H4.32331C3.63844 12.1083 3.15227 12.1083 2.77161 12.0766C2.39638 12.0463 2.16407 11.99 1.97991 11.8976C1.61025 11.7115 1.30957 11.4172 1.12115 11.0536C1.02737 10.8718 0.969115 10.6438 0.938445 10.2744C0.907335 9.90068 0.907041 9.42168 0.907041 8.74929V1.35016L1.90947 1.78737C1.9284 1.79603 1.94704 1.80468 1.96538 1.8119C2.28015 1.95041 2.52698 2.05863 2.78584 2.08605C3.06803 2.11635 3.35331 2.07594 3.61467 1.96628C3.8546 1.86672 4.0596 1.6936 4.3211 1.47284C4.33637 1.45985 4.35178 1.44686 4.36748 1.43387C4.57615 1.25784 4.71541 1.14094 4.83002 1.05725C4.94067 0.976453 5.00392 0.946168 5.05278 0.928853C5.20731 0.879795 5.37416 0.879795 5.52868 0.928853C5.5774 0.946168 5.6408 0.976453 5.7513 1.05725C5.86605 1.14094 6.00517 1.25784 6.21384 1.43387C6.22955 1.44686 6.2451 1.45985 6.26036 1.47284C6.52172 1.6936 6.72673 1.86672 6.96666 1.96628C7.22816 2.07594 7.51343 2.11635 7.79548 2.08605C8.05449 2.05863 8.30132 1.95041 8.61594 1.8119C8.63443 1.80468 8.65307 1.79603 8.67185 1.78737L9.67443 1.35016V11.3652C9.67443 11.6322 9.73987 11.8847 9.85566 12.1083ZM5.29066 4.37877C5.54116 4.37877 5.74426 4.57936 5.74426 4.82465V4.97326H6.5C6.7505 4.97326 6.95345 5.17381 6.95345 5.4191C6.95345 5.66583 6.7505 5.86494 6.5 5.86494H4.98836C4.73786 5.86494 4.53491 6.06553 4.53491 6.31082C4.53491 6.55755 4.73786 6.75666 4.98836 6.75666H5.59296C6.34445 6.75666 6.95345 7.35545 6.95345 8.09421C6.95345 8.78391 6.42443 9.35096 5.74426 9.42454V9.58183C5.74426 9.82712 5.54116 10.0277 5.29066 10.0277C5.04031 10.0277 4.83721 9.82712 4.83721 9.58183V9.43322H4.08147C3.83097 9.43322 3.62787 9.23263 3.62787 8.98734C3.62787 8.7406 3.83097 8.5415 4.08147 8.5415H5.59296C5.84346 8.5415 6.04655 8.34094 6.04655 8.09421C6.04655 7.84892 5.84346 7.64837 5.59296 7.64837H4.98836C4.23702 7.64837 3.62787 7.04958 3.62787 6.31082C3.62787 5.62256 4.15704 5.05548 4.83721 4.98189V4.82465C4.83721 4.57936 5.04031 4.37877 5.29066 4.37877Z" fill="#222E39"/>
</svg>
