<svg width="13" height="13" viewBox="0 0 13 13" fill="none" xmlns="http://www.w3.org/2000/svg">
<path fill-rule="evenodd" clip-rule="evenodd" d="M4.30335 0H5.06878C5.72914 0 6.25244 1.50486e-05 6.67433 0.0337698C7.10562 0.0689922 7.47058 0.142376 7.80385 0.312617C8.34431 0.587058 8.78367 1.02731 9.05912 1.56739C9.2289 1.90053 9.30242 2.26599 9.33764 2.69747C9.37213 3.11867 9.37213 3.64259 9.37213 4.30301V8.69699C9.37213 9.35741 9.37213 9.87986 9.33764 10.3025C9.30242 10.734 9.2289 11.0995 9.05912 11.4326C8.78367 11.9727 8.34431 12.4115 7.80385 12.6874C7.47058 12.8576 7.10562 12.931 6.67433 12.9662C6.25244 13 5.72914 13 5.06878 13H4.30335C3.64299 13 3.11954 13 2.69779 12.9662C2.2665 12.931 1.9014 12.8576 1.56814 12.6874C1.02781 12.4115 0.588453 11.9727 0.313009 11.4326C0.143223 11.0995 0.0697054 10.734 0.0344861 10.3025C6.50542e-07 9.87986 0 9.35741 0 8.69699V4.30301C0 3.64259 6.50542e-07 3.11867 0.0344861 2.69747C0.0697054 2.26599 0.143223 1.90053 0.313009 1.56739C0.588453 1.02731 1.02781 0.587058 1.56814 0.312617C1.9014 0.142376 2.2665 0.0689922 2.69779 0.0337698C3.11954 1.50486e-05 3.64299 0 4.30335 0ZM2.77161 0.937807C2.39638 0.968627 2.16407 1.02733 1.97991 1.12126C1.61025 1.30911 1.30957 1.60996 1.12115 1.97979C1.02737 2.16324 0.969115 2.39659 0.938445 2.77083C0.907335 3.1524 0.907041 3.6382 0.907041 4.32357V8.67648C0.907041 9.36184 0.907335 9.8476 0.938445 10.2292C0.969115 10.6034 1.02737 10.8368 1.12115 11.0202C1.30957 11.39 1.61025 11.6909 1.97991 11.8787C2.16407 11.9727 2.39638 12.0314 2.77161 12.0622C3.15227 12.093 3.63844 12.093 4.32331 12.093H5.04882C5.73354 12.093 6.21986 12.093 6.60037 12.0622C6.97575 12.0314 7.20805 11.9727 7.39207 11.8787C7.76188 11.6909 8.06256 11.39 8.25098 11.0202C8.34475 10.8368 8.40301 10.6034 8.43368 10.2292C8.46479 9.8476 8.46509 9.36184 8.46509 8.67648V4.32357C8.46509 3.6382 8.46479 3.1524 8.43368 2.77083C8.40301 2.39659 8.34475 2.16324 8.25098 1.97979C8.06256 1.60996 7.76188 1.30911 7.39207 1.12126C7.20805 1.02733 6.97575 0.968627 6.60037 0.937807C6.21986 0.906988 5.73354 0.906993 5.04882 0.906993H4.32331C3.63844 0.906993 3.15227 0.906988 2.77161 0.937807ZM10.7326 2.41862C10.983 2.41862 11.1861 2.62113 11.1861 2.87209V10.1279C11.1861 10.3789 10.983 10.5814 10.7326 10.5814C10.4821 10.5814 10.279 10.3789 10.279 10.1279V2.87209C10.279 2.62113 10.4821 2.41862 10.7326 2.41862ZM2.41868 3.47677C2.41868 3.22581 2.62163 3.02325 2.87213 3.02325H6.5C6.7505 3.02325 6.95345 3.22581 6.95345 3.47677C6.95345 3.72626 6.7505 3.93025 6.5 3.93025H2.87213C2.62163 3.93025 2.41868 3.72626 2.41868 3.47677ZM12.5466 3.62793C12.7969 3.62793 13 3.83044 13 4.0814V8.9186C13 9.16956 12.7969 9.37212 12.5466 9.37212C12.2961 9.37212 12.093 9.16956 12.093 8.9186V4.0814C12.093 3.83044 12.2961 3.62793 12.5466 3.62793ZM2.41868 5.89535C2.41868 5.64439 2.62163 5.44187 2.87213 5.44187H6.5C6.7505 5.44187 6.95345 5.64439 6.95345 5.89535C6.95345 6.1463 6.7505 6.34882 6.5 6.34882H2.87213C2.62163 6.34882 2.41868 6.1463 2.41868 5.89535ZM2.41868 8.31396C2.41868 8.063 2.62163 7.86049 2.87213 7.86049H4.08147C4.33182 7.86049 4.53491 8.063 4.53491 8.31396C4.53491 8.56492 4.33182 8.76744 4.08147 8.76744H2.87213C2.62163 8.76744 2.41868 8.56492 2.41868 8.31396Z" fill="#222E39"/>
</svg>
