<svg width="23" height="23" viewBox="0 0 23 23" fill="none" xmlns="http://www.w3.org/2000/svg">
<mask id="mask0_14_506" style="mask-type:luminance" maskUnits="userSpaceOnUse" x="0" y="0" width="23" height="23">
<path d="M23 0H0V23H23V0Z" fill="white"/>
</mask>
<g mask="url(#mask0_14_506)">
<path fill-rule="evenodd" clip-rule="evenodd" d="M10.543 2.63511C6.17504 2.63511 2.63746 6.17481 2.63746 10.5413C2.63746 14.9079 6.17504 18.4476 10.543 18.4476C12.7269 18.4476 14.7017 17.5633 16.1344 16.1317C17.5648 14.7004 18.4486 12.7246 18.4486 10.5413C18.4486 6.17481 14.9086 2.63511 10.543 2.63511ZM1.20013 10.5413C1.20013 5.38077 5.38192 1.19751 10.543 1.19751C15.704 1.19751 19.8859 5.38077 19.8859 10.5413C19.8859 12.8625 19.0393 14.987 17.6392 16.6206L20.6349 19.6163C20.914 19.897 20.914 20.3522 20.6349 20.6329C20.3535 20.9134 19.8976 20.9134 19.6185 20.6329L16.6228 17.637C14.9877 19.0379 12.8642 19.885 10.543 19.885C5.38192 19.885 1.20013 15.7017 1.20013 10.5413Z" fill="#0F1419"/>
</g>
</svg>
